<svg xmlns="http://www.w3.org/2000/svg" width="512" height="512" viewBox="0 0 512 512"><path fill="#14B6B9" d="M363.4,198.7c-16.4,6.2-28.8,22-38.1,36.2c-0.3,0.5-0.6,1-0.9,1.4c0.2-0.1,0.5-0.2,0.7-0.4c9.6-6,16.8-15.9,27.4-20.4c9.2-3.9,16.2-2.2,23.8,3.7c2.9,2.2,7.7,6.5,11.8,5.1c3.7-1.3,6.6-5,9.6-7.4c1.8-1.5,3.6-1.5,5.1-0.7C393.4,203.6,380.1,192.3,363.4,198.7z"/><path fill="#C56528" d="M461.4,367.4c-7.7-24.5-14.2-49.4-22.6-73.7c-4.4-12.7-9.5-25.2-14.8-37.6c-5.2-12.1-10.6-24.2-17.9-35.2c-0.1-0.1-0.2-0.3-0.3-0.4c0.4,1.9-0.1,4-2,5.5c-6.9,5.6-12.3,11.3-22,8.8c-4.5-1.2-8.2-3.8-11.8-6.6c-2-1.5-4.7-4.3-7.4-4.1c-10,0.7-17.7,10.6-25.1,16.5c-3.6,2.8-7.8,6.2-12.4,7.3c-2,0.5-4.1,0.5-6.1,0.1c-0.1,0-0.2,0-0.3,0c-0.6,0.5-1.3,1-2,1.2c-5.7,10.2-10.6,20.8-14.5,31.7c0,0.1-0.1,0.2-0.1,0.3c8.4,23,17.3,45.9,26.4,68.7c11.5,28.9,23.9,57.4,39.4,84.4c0.5,0.8,0.7,1.6,0.8,2.5c3.1-0.1,6.3-0.2,9.4-0.2c32-0.5,64.1-0.2,96.2-0.2c0.4-0.8,1-1.6,1.8-2.1C474.4,411.5,468.3,389.3,461.4,367.4z"/><path fill="#EF4823" d="M390.1,83.5c-8-3.9-16.9-9.1-26-9.5c0,2.7,0.2,5.4,0.3,7.7c0.4,9.3,1.2,18.6,2.6,27.8c0.4,2.6,0.8,5.1,1.3,7.7c0.3-0.2,0.6-0.4,0.9-0.7c0.3-0.3,0.7-0.5,1-0.6c4.4-3.1,8.7-6.4,13.6-8.5c2.8-1.2,2.2-0.9,5.3-2.7c3.3-1.9,6.6-3.8,9.9-5.7c3.7-2.1,7.8-4,11.5-6.3C403.6,90.2,396.8,86.8,390.1,83.5z"/><path fill="#D6E5E5" d="M449.1 177.2c-4.2 1.9-7.5-2.5-7.2-6.2.9-12-12.4-21.9-23.7-18.3-10.2 3.2-16.1 13.7-24.8 19.5-2.7 1.8-5.7.9-7.6-1.5-2.8-3.4-7.1-5.4-11.5-6.5.3 5.6.5 11.3.5 16.9 1.3 1.5 1.9 3.1 1.9 4.8 23.2 2 39.6 27.2 51.1 51.3.4 0 .7-.1 1.1 0 17.8 1.2 44.6-7.3 49.9-26.6C483.7 192 470.5 167.7 449.1 177.2zM363.1 162.6c-7.9-.3-16.2.5-23.7 3.1-6.8 2.3-11.4 7.5-12.9 14.6-1.4 6.9-.3 14.5 6.2 18.3 2.5 1.5 3.2 4.1 2.6 6.3 6.2-6.2 13.1-11.5 21-15.1 2.5-1.2 5-2 7.4-2.7C363.8 178.9 363.6 170.8 363.1 162.6z"/><path fill="#C56528" d="M355.2,434.3c-7.8-14-14.8-28.4-21.4-43c-12.7-28.4-23.5-57.5-34.5-86.6c-7.6-20-14.5-40.2-21.8-60.3c-2.7,5.1-9.1,7.4-16,5.8c-9-2-19.3-7.5-24.5-15.5c-4.2-6.5-6.5-14.2-10.4-20.9c-0.8-1.4-2.1-3.7-3.3-5.3c-0.7,2-1.1,4.2-1.4,6.3c-1.2,8-2.5,17.5-8.9,23.1c-7.9,6.9-19.3,2.2-23.9-6c-2.5-4.5-3.5-9.4-4.6-14.4c-0.6-2.8-3.2-10.3-6.7-11.1c-3.2-0.7-6.2,2.7-8.1,4.9c-3.2,3.7-5.9,7.7-8.3,11.8c-5.5,9.3-10.1,18.6-18.6,25.6c-7.2,5.9-15.8,9.5-24.6,8c-1.5,3.8-3.1,7.6-4.6,11.4c-11.8,29.3-22,59.2-33,88.9c-10.6,28.8-21.3,58-25.1,88.6c4.4-0.8,9.1-0.7,12.6-0.8c10.6-0.4,21.2-0.1,31.7,0.2c-0.1-9.5-1.1-18.9-1-28.3c0.1-8.2,0.1-18.3,4.6-25.5c3.8-6.2,9.3-10.1,15.7-13.4c5.8-2.9,12.9-5.4,17.1-10.7c10.3-13.1,1.9-32.6,2.8-47.5c0.4-7,3.2-12.3,7.6-17.6c2.6-3.1,5.3-6,7.6-9.2c1.8-2.5,3.4-5.2,5.4-7.5c4.7-5.3,13,2,8.3,7.3c-2.1,2.3-3.6,5.1-5.4,7.5c-2.4,3.2-5.1,6.1-7.6,9.2c-4,5-5.8,9.8-5,16.4c1.9,14.8,4.9,32.3-3.4,45.7c-3.8,6.2-10,9.9-16.3,13.1c-5.4,2.7-11.9,5.1-15.8,10c-4.8,6.1-4.7,15.6-4.6,23c0.1,9,0.9,18,1,27c0,0.3,0,0.6-0.1,0.8c23.2,0.3,46.3-0.9,69.5-1.3c15.7-0.2,31.4-0.5,47.1-1c0-6.4,0.1-12.8,0.8-19.1c0.5-4.3,2.2-10.4,0.3-14.6c-0.3-0.7-3-1.8-5-2.6c-3.8-1.5-7.3-3.4-10.7-5.7c-17-11.4-14-32.6-13.9-50.2c0.1-7.1,11-7.9,11-0.8c-0.1,8.7-1.3,17.5,0.1,26.2c1.6,9.7,7,15.8,15.9,19.6c6.5,2.8,12.1,5,13.7,12.7c1.1,5.2,0.3,10.5-0.4,15.7c-0.7,6.2-0.8,12.3-0.9,18.5c13.5-0.4,27-1,40.5-1.7c10.4-0.6,20.8-1.2,31.1-1.7c0.3-5.7,1.8-14.2-3.1-17.7c-4.9-3.5-11.3-4.6-16.4-7.8c-6-3.7-1.2-13.6,4.9-9.9c6.4,4,14.7,5.1,20.2,10.6c6.6,6.6,5.6,15.6,5.4,24.1c11.4-0.6,22.9-1.1,34.3-1.5C354.9,436.3,354.9,435.3,355.2,434.3z"/><path fill="#D6E5E5" d="M299.1,129.3c-7.6-6.9-20-8.1-29.7-8.9c-9.5-0.8-19.2-0.7-28.8,0.1c-2.3,0.2-5-1.3-5.6-3.7c-3.9-13.6-20.9-26.3-35.1-25.7c-13.8,0.6-23.2,11.6-34.7,18c-2.7,1.5-5.7,1.1-7.6-1.5c-4.2-5.8-9.1-12.3-16-15c-6.6-2.6-14.5-1.1-21,1.1c-15.5,5.2-27.7,15.5-28,33c-0.1,4.1-3.9,7.3-7.9,5.4c-12.4-6-29.2-7.9-42.1-2.5c-4.4,1.8-11.9,6.3-11.2,12.1c0.6,4.6,5.5,8.1,9.3,10.2c13.1,7.2,29.6,8.5,44.3,9.2c19.6,1,39.2,0.1,58.7,1c0.5,0,0.9,0.1,1.4,0.2c6.3-11.3,14-21.8,24.2-29.4c17.8-13.2,38.8-10.4,55.9,2.6c8.6,6.5,16.1,14.4,22.6,23c1.4-1,3.3-1.3,5.3-0.4c5.6,2.6,13.2,1.3,19.1,0.2c7-1.4,14.4-3.6,20.4-7.5C299.5,146.4,305.6,135.1,299.1,129.3z"/><path fill="#14B6B9" d="M272.7,231.2c-0.2-0.5-0.3-0.9-0.5-1.4c-8.8-23.5-19-47.1-34.7-66.9c-12.4-15.6-33.2-35.5-54.7-25.4c-18.1,8.5-28.8,30.1-36.3,47.5c-5.5,12.8-10,26-15.1,38.9c-3,7.5-6,14.9-9,22.3c7.8,0,15.2-6.7,19.8-12.6c5.5-7.1,9-15.5,14.1-22.9c4.7-6.8,11.4-15.4,20.5-15.4c10.5,0,16.5,11.8,18.5,20.6c0.9,4.1,1.8,10.4,5.3,13.2c2.8,2.2,5.6,1,6.9-1.9c3.7-7.9,2.3-17.6,6.5-25.3c4.2-7.6,11.8-7,17.1-0.9c5.4,6.2,8.6,14.2,12,21.6c3.2,6.7,6.9,11.2,13.8,14.4c2.9,1.4,6.4,3,9.7,2.6c1.1-0.1,0.9,0.1,1.2-0.4c-0.3,0.4-0.2-1.8-0.3-2.4C267.3,233.4,269.9,231.4,272.7,231.2z"/><path fill="#010101" d="M490.1,210.2c5.6-24-13.6-50.8-38-45.6c-2.7-12.9-13.9-23.1-27.9-23.6c-7.6-0.2-14.5,2.3-20.4,7c-4.7,3.8-8.5,8.4-13.1,12.3c-4.9-4-11-6.3-17.3-7.5c-0.3-3.5-0.6-7-1-10.6c-0.6-5-1.4-9.9-2.2-14.8c1.2,0.2,2.6,0,4-1c4.5-3,9.5-7.4,14.3-9.2c-2.3,0.8,1.9-0.7,1.9-0.8c1.7-0.9,3.3-1.9,5-2.8c3.9-2.2,7.7-4.4,11.6-6.6c6.6-3.8,13.5-7,19-12.5c2.7-2.7,1.5-6.1-1-7.8c-0.7-1.3-1.9-2.4-3.6-2.7c-19.7-3.6-35.7-19.2-55.9-20.9c0.3-1,0.7-1.9,1.3-2.7c3.7-6.1-6.2-10.9-9.9-4.9c-3.8,6.2-3.5,15.1-3.5,22.1c0,9.8,1,19.6,2.3,29.3c1.4,10.8,3.9,21.4,5.4,32.2c0.5,4.1,1,8.3,1.4,12.4c-10.2-0.3-21,1-30.3,5.1c-20.1,8.7-23.4,40.5-4.2,51.7c1.2,0.7,2.4,0.9,3.5,0.7c-5.6,6.2-10.6,13.1-15.1,19.9c-7.7,11.4-14.4,23.7-19.8,36.5c-8.3-23.7-16.2-47.7-26.9-70.5c-4-8.4-8.4-16.8-13.4-24.8c13.6,2.3,29.9-3.2,41-9.3c12-6.6,20.1-22.5,13.1-35.4c-5.9-10.9-21.9-13.9-33-15.4c-10.9-1.4-22.1-1.6-33.1-1c-6.3-14.9-23.6-27.1-39-28.8c-8.9-1-17.1,1.1-24.8,5.5c-5.8,3.3-11,7.6-16.6,11.3c-4.7-5.9-10-11.4-17-14.5c-9.3-4.1-20.1-2.4-29.5,0.6c-9.5,3-18.4,8.1-25.2,15.5c-5.3,5.8-8.2,12.9-9.4,20.4c-13.9-4.7-29.9-5.2-43.4-0.1C29,122.8,21,131.8,20.9,141.3v0c0,4.3,1.6,8.8,5.5,12.9c11.3,12.1,29.3,14.7,44.9,16.5c22.8,2.7,45.8,1.2,68.7,2c-1.9,4.1-3.7,8.2-5.3,12.2c-5.6,13.6-10.5,27.6-15.9,41.3c-2.7,6.6-5.3,13.3-8,19.9c-1.2,1.2-1.9,2.9-1.8,4.5c-2.7,6.6-5.3,13.2-8,19.8c-11.7,29.3-21.9,59.3-32.8,88.9c-10.3,27.9-20.2,56.4-23.7,86.1c-0.2,2,0.5,3.6,1.6,4.7c-0.4,0.4-0.8,0.9-1.1,1.4c-3.4,5.6,4.7,10.1,8.9,6.1c0.1,0,0.3-0.1,0.7-0.2c1.2-0.4,1.7-0.4,2.9-0.6c3.8-0.6,7.7-0.8,11.6-0.9c9.1-0.4,18.1-0.2,27.2,0.1c23.2,0.6,46.4,0.1,69.6-0.5c32.7-0.9,65.3-0.9,98-2.5c33.1-1.6,66.1-3.9,99.3-4.9c36.7-1.2,73.4-0.6,110.1-0.6c0.1,0,0.1,0,0.2,0h4.4c2.9,3.4,9.7,0.6,9.6-4.4c-0.2-31.9-10.5-61.7-19.3-92c-8.5-28.8-16.7-57.6-28.1-85.5c-2.1-5.1-4.5-11.2-7.3-17.6C457,247.7,484.2,235.4,490.1,210.2z M390.1,83.5c6.7,3.3,13.4,6.7,20.5,9.1c-3.8,2.3-7.9,4.2-11.5,6.3c-3.3,1.9-6.6,3.8-9.9,5.7c-3.1,1.8-2.5,1.5-5.3,2.7c-4.9,2.1-9.2,5.4-13.6,8.5c-0.3,0.2-0.7,0.4-1,0.6c-0.3,0.2-0.6,0.4-0.9,0.7c-0.5-2.6-0.9-5.1-1.3-7.7c-1.4-9.2-2.3-18.5-2.6-27.8c-0.1-2.3-0.3-4.9-0.3-7.7C373.2,74.4,382.2,79.6,390.1,83.5z M326.5,180.3c1.5-7.1,6.2-12.3,12.9-14.6c7.5-2.5,15.8-3.4,23.7-3.1c0.5,8.1,0.7,16.3,0.7,24.4c-2.4,0.7-4.9,1.5-7.4,2.7c-7.9,3.6-14.8,8.9-21,15.1c0.6-2.2-0.1-4.8-2.6-6.3C326.2,194.8,325.1,187.2,326.5,180.3z M325.4,234.9c9.3-14.2,21.7-29.9,38.1-36.2c16.6-6.3,30,4.9,39.4,17.6c-1.5-0.8-3.4-0.8-5.1,0.7c-2.9,2.4-5.9,6.2-9.6,7.4c-4.1,1.4-8.8-2.9-11.8-5.1c-7.7-5.9-14.6-7.6-23.8-3.7c-10.6,4.5-17.8,14.3-27.4,20.4c-0.2,0.1-0.5,0.3-0.7,0.4C324.8,235.8,325.1,235.3,325.4,234.9z M85.1,161c-14.6-0.7-31.2-2-44.3-9.2c-3.8-2.1-8.7-5.6-9.3-10.2c-0.7-5.8,6.8-10.3,11.2-12.1c12.9-5.4,29.7-3.5,42.1,2.5c4,1.9,7.9-1.2,7.9-5.4c0.3-17.4,12.5-27.7,28-33c6.5-2.2,14.4-3.7,21-1.1c6.9,2.7,11.7,9.3,16,15c1.9,2.6,4.9,3,7.6,1.5c11.4-6.4,20.8-17.4,34.7-18c14.2-0.6,31.2,12.1,35.1,25.7c0.7,2.3,3.3,3.9,5.6,3.7c9.5-0.8,19.2-0.9,28.8-0.1c9.7,0.8,22.1,2,29.7,8.9c6.4,5.9,0.3,17.1-6.4,21.5c-6,3.9-13.5,6.2-20.4,7.5c-5.8,1.1-13.5,2.4-19.1-0.2c-2-0.9-3.9-0.6-5.3,0.4c-6.5-8.6-14-16.5-22.6-23c-17.2-13-38.1-15.8-55.9-2.6c-10.2,7.5-17.9,18.1-24.2,29.4c-0.4-0.1-0.9-0.2-1.4-0.2C124.3,161.1,104.7,162,85.1,161z M131.4,224c5.1-12.9,9.6-26.1,15.1-38.9c7.4-17.4,18.1-39,36.3-47.5c21.5-10.1,42.3,9.8,54.7,25.4c15.7,19.8,25.9,43.4,34.7,66.9c0.2,0.5,0.3,0.9,0.5,1.4c-2.8,0.2-5.4,2.1-4.9,5.7c0.1,0.6,0,2.8,0.3,2.4c-0.3,0.5-0.2,0.3-1.2,0.4c-3.3,0.3-6.8-1.3-9.7-2.6c-6.9-3.3-10.7-7.7-13.8-14.4c-3.4-7.3-6.7-15.4-12-21.6c-5.3-6.1-12.9-6.7-17.1,0.9c-4.3,7.7-2.8,17.4-6.5,25.3c-1.4,2.9-4.2,4-6.9,1.9c-3.6-2.8-4.4-9.1-5.3-13.2c-2-8.8-8-20.6-18.5-20.6c-9.1,0-15.8,8.6-20.5,15.4c-5.1,7.4-8.6,15.9-14.1,22.9c-4.6,5.9-12,12.6-19.8,12.6C125.4,238.9,128.4,231.4,131.4,224z M355.1,437.3c-11.4,0.4-22.9,0.9-34.3,1.5c0.2-8.5,1.2-17.5-5.4-24.1c-5.5-5.5-13.7-6.7-20.2-10.6c-6-3.7-10.9,6.2-4.9,9.9c5.1,3.2,11.5,4.3,16.4,7.8c4.9,3.5,3.4,12,3.1,17.7c-10.4,0.6-20.8,1.2-31.1,1.7c-13.5,0.7-27,1.3-40.5,1.7c0-6.2,0.1-12.4,0.9-18.5c0.6-5.2,1.5-10.5,0.4-15.7c-1.6-7.7-7.2-9.9-13.7-12.7c-8.9-3.9-14.3-10-15.9-19.6c-1.4-8.7-0.2-17.5-0.1-26.2c0.1-7.1-10.9-6.2-11,0.8c-0.1,17.7-3.1,38.8,13.9,50.2c3.4,2.3,6.9,4.1,10.7,5.7c2,0.8,4.7,1.9,5,2.6c1.9,4.2,0.3,10.3-0.3,14.6c-0.7,6.3-0.8,12.7-0.8,19.1c-15.7,0.4-31.4,0.7-47.1,1c-23.2,0.4-46.3,1.6-69.5,1.3c0-0.3,0.1-0.5,0.1-0.8c-0.1-9-0.9-18-1-27c-0.1-7.4-0.2-16.9,4.6-23c3.9-4.9,10.4-7.3,15.8-10c6.3-3.2,12.5-6.9,16.3-13.1c8.3-13.4,5.3-31,3.4-45.7c-0.8-6.5,0.9-11.4,5-16.4c2.5-3.1,5.3-6,7.6-9.2c1.8-2.5,3.4-5.2,5.4-7.5c4.7-5.3-3.5-12.5-8.3-7.3c-2,2.3-3.6,5-5.4,7.5c-2.3,3.3-5.1,6.2-7.6,9.2c-4.4,5.3-7.2,10.6-7.6,17.6c-1,14.9,7.4,34.4-2.8,47.5c-4.1,5.3-11.3,7.7-17.1,10.7c-6.4,3.3-11.8,7.2-15.7,13.4c-4.5,7.2-4.5,17.3-4.6,25.5c-0.1,9.5,0.9,18.9,1,28.3c-10.6-0.3-21.2-0.6-31.7-0.2c-3.5,0.1-8.3,0-12.6,0.8c3.8-30.6,14.5-59.8,25.1-88.6c10.9-29.7,21.2-59.5,33-88.9c1.5-3.8,3.1-7.6,4.6-11.4c8.8,1.5,17.5-2.1,24.6-8c8.5-7,13.1-16.3,18.6-25.6c2.5-4.2,5.2-8.2,8.3-11.8c1.9-2.2,4.9-5.6,8.1-4.9c3.5,0.7,6.1,8.3,6.7,11.1c1.1,4.9,2.1,9.9,4.6,14.4c4.6,8.2,16,12.9,23.9,6c6.4-5.6,7.7-15.1,8.9-23.1c0.3-2.1,0.7-4.3,1.4-6.3c1.3,1.6,2.5,3.9,3.3,5.3c3.9,6.7,6.3,14.4,10.4,20.9c5.1,8,15.4,13.5,24.5,15.5c6.9,1.6,13.2-0.7,16-5.8c7.3,20.1,14.2,40.3,21.8,60.3c11,29.1,21.8,58.2,34.5,86.6c6.5,14.6,13.6,29,21.4,43C354.9,435.3,354.9,436.3,355.1,437.3z M438.9,293.8c8.4,24.3,14.9,49.1,22.6,73.7c6.8,21.9,13,44.1,14.5,67c-0.7,0.6-1.3,1.3-1.8,2.1c-32.1,0-64.1-0.4-96.2,0.2c-3.1,0.1-6.3,0.1-9.4,0.2c-0.1-0.8-0.3-1.7-0.8-2.5c-15.5-27-27.9-55.5-39.4-84.4c-9-22.8-18-45.7-26.4-68.7c0-0.1,0.1-0.2,0.1-0.3c3.8-10.9,8.8-21.5,14.5-31.7c0.7-0.3,1.4-0.7,2-1.2c0.1,0,0.2,0,0.3,0c2,0.3,4.1,0.3,6.1-0.1c4.5-1.1,8.8-4.5,12.4-7.3c7.4-5.8,15.1-15.8,25.1-16.5c2.7-0.2,5.5,2.5,7.4,4.1c3.6,2.8,7.3,5.5,11.8,6.6c9.7,2.5,15.2-3.1,22-8.8c1.9-1.5,2.4-3.6,2-5.5c0.1,0.1,0.2,0.3,0.3,0.4c7.3,11,12.7,23.1,17.9,35.2C429.3,268.5,434.5,281,438.9,293.8z M428.8,237.1c-0.4,0-0.8,0-1.1,0c-11.5-24.1-27.9-49.4-51.1-51.3c0.1-1.8-0.5-3.3-1.9-4.8c-0.1-5.6-0.3-11.3-0.5-16.9c4.5,1.1,8.7,3.1,11.5,6.5c1.9,2.3,4.9,3.2,7.6,1.5c8.7-5.7,14.6-16.2,24.8-19.5c11.3-3.6,24.6,6.4,23.7,18.3c-0.3,3.7,3,8.1,7.2,6.2c21.4-9.5,34.7,14.8,29.6,33.3C473.4,229.8,446.6,238.3,428.8,237.1z"/></svg>